# xmcd
#
# Track frame offsets: 
#        150
#        21910
#        30009
#        43658
#        70875
#        101816
#        111411
#        146325
#        164821
#        175885
#
# Disc length: 3081 seconds
#
# Revision: 3
# Processed by: cddbd v1.5.2PL0 Copyright (c) Steve Scherf et al.
# Submitted via: ExactAudioCopy v1.0b1
#
DISCID=870c070a
DTITLE=Maria Jo縊 Pires - Beethoven - Sonatas - "Quasi una Fantasia"
DYEAR=2001
DGENRE=Classical
TTITLE0=Beethoven_Klaviersonate Nr. 13 Op. 27 Nr. 1 Es-Dur - 1. Andant
TTITLE0=e - Allegro - Tempo I - attacca
TTITLE1=2. Allegro molto e vivace - attacca:
TTITLE2=3. Adagio con espressione - attacca:
TTITLE3=4. Allegro vivace
TTITLE4=Beethoven_Klaviersonate Nr. 14 Op. 27 Nr. 2 cis-Moll "Mondsche
TTITLE4=in-Sonate": 1. Adagio sostenuto - attacca:
TTITLE5=2. Allegretto - attacca
TTITLE6=3. Presto agitato
TTITLE7=Beethoven_Klaviersonate Nr. 30 Op. 109 E-Dur - 1. Vivace, ma n
TTITLE7=on troppo
TTITLE8=2. Prestissimo
TTITLE9=3. Gesangvoll, mit innigster Empfindung (Andante molto cantabi
TTITLE9=le ed espressivo)
EXTD=YEAR: 2001
EXTT0=
EXTT1=
EXTT2=
EXTT3=
EXTT4=
EXTT5=
EXTT6=
EXTT7=
EXTT8=
EXTT9=
PLAYORDER=
